<svg width="500" height="141" viewBox="0 0 500 141" fill="none" xmlns="http://www.w3.org/2000/svg">
<path d="M79.2737 134.713C92.5055 134.713 104.801 130.754 115.028 123.919C102.874 134.091 87.2042 140.211 70.1057 140.211C31.3955 140.211 0 108.816 0 70.1057C0 31.3955 31.3955 0 70.1057 0C87.2042 0 102.874 6.12023 115.028 16.2919C104.801 9.45742 92.5055 5.49836 79.2737 5.49836C43.5867 5.49836 14.6664 34.4186 14.6664 70.1057C14.6664 105.793 43.5867 134.713 79.2737 134.713Z" fill="#43AF7B"/>
<path d="M73.369 126.456C61.8304 126.456 51.0985 123.002 42.1829 117.042C52.7794 125.914 66.4483 131.253 81.361 131.253C115.121 131.253 142.508 103.872 142.508 70.1057C142.508 36.3397 115.127 8.95874 81.361 8.95874C66.4483 8.95874 52.7794 14.297 42.1829 23.1695C51.1046 17.2094 61.8304 13.7552 73.369 13.7552C104.494 13.7552 129.719 38.9812 129.719 70.1057C129.713 101.23 104.487 126.456 73.369 126.456Z" fill="#43AF7B"/>
<path d="M61.929 96.2552L61.8674 86.065L72.0268 80.5728L71.9837 63.616L81.0347 71.9158L81.0532 98.4902L113.126 81.7304C114.203 81.1762 115.472 81.1516 116.568 81.6627L123.686 85.2585L78.9721 110.398C75.7888 112.184 72.113 109.899 71.9837 106.254V90.5228L61.929 96.2552Z" fill="#43AF7B"/>
<path d="M47.2502 41.1052C46.3697 42.5706 45.8895 44.2638 45.9018 46.0371C45.9141 47.8289 46.4128 49.5036 47.3056 50.9567L31.1061 51.0491C28.3846 51.0675 26.168 48.8756 26.1495 46.1541C26.1311 43.4326 28.323 41.2161 31.0445 41.1976L47.2502 41.1052Z" fill="#43AF7B"/>
<path d="M84.1257 45.791C84.1441 48.5125 81.9522 50.7291 79.2307 50.7475L63.0127 50.8399C63.8932 49.3745 64.3734 47.6997 64.3611 45.908C64.3488 44.1347 63.8501 42.4415 62.9573 40.9884L79.1753 40.896C81.8906 40.8837 84.1072 43.0757 84.1257 45.791Z" fill="#43AF7B"/>
<path d="M60.0448 52.3792L60.2849 93.6753C60.3034 96.6123 58.0376 99.0075 55.2237 99.0198C52.4099 99.0383 50.1194 96.6678 50.101 93.7308L49.8608 52.4346C51.3755 53.315 53.1303 53.7953 54.9713 53.783C56.8123 53.7707 58.5425 53.2719 60.0448 52.3792Z" fill="black"/>
<path d="M54.9036 51.7511C58.0933 51.7511 60.679 49.1653 60.679 45.9756C60.679 42.7859 58.0933 40.2002 54.9036 40.2002C51.7139 40.2002 49.1282 42.7859 49.1282 45.9756C49.1282 49.1653 51.7139 51.7511 54.9036 51.7511Z" fill="black"/>
<path d="M172.229 72.0636H163.522V29.8069H172.229V72.0636ZM217.213 36.8568H204.271V72.0636H195.564V36.8568H182.794V29.8069H217.219V36.8568H217.213ZM261.526 59.8724L267.216 29.8007H275.891L266.52 72.0574H257.752L250.874 43.7898L243.997 72.0574H235.229L225.852 29.8007H234.533L240.253 59.8108L247.217 29.8007H254.587L261.526 59.8724ZM295.828 72.0636H287.122V29.8069H295.828V72.0636ZM344.236 72.0636H335.529L318.579 44.2578V72.0636H309.873V29.8069H318.579L335.56 57.6681V29.8069H344.236V72.0636ZM357.782 72.0636V29.8069H370.786C374.498 29.8069 377.817 30.6504 380.742 32.3313C383.685 33.9938 385.975 36.3766 387.619 39.4736C389.263 42.5522 390.088 46.0495 390.088 49.9778V51.9234C390.088 55.8517 389.275 59.3429 387.65 62.403C386.043 65.4631 383.771 67.8274 380.828 69.5145C377.885 71.1954 374.566 72.0513 370.872 72.0697H357.782V72.0636ZM366.488 36.8568V65.069H370.699C374.104 65.069 376.709 63.9546 378.507 61.7318C380.305 59.5091 381.228 56.3258 381.265 52.1821V49.947C381.265 45.6493 380.372 42.3983 378.593 40.194C376.813 37.9713 374.209 36.8568 370.786 36.8568H366.488ZM437.098 51.8927C437.098 56.0549 436.366 59.7 434.894 62.834C433.423 65.968 431.317 68.3877 428.571 70.0871C425.843 71.7927 422.709 72.6424 419.169 72.6424C415.665 72.6424 412.544 71.7988 409.791 70.1179C407.045 68.437 404.915 66.0357 403.406 62.9202C401.898 59.7862 401.134 56.1842 401.116 52.1205V50.0332C401.116 45.871 401.861 42.2136 403.351 39.0611C404.859 35.8902 406.977 33.4581 409.705 31.7772C412.451 30.0716 415.591 29.2219 419.107 29.2219C422.629 29.2219 425.757 30.0716 428.484 31.7772C431.231 33.4581 433.349 35.8902 434.839 39.0611C436.347 42.2136 437.104 45.8648 437.104 50.0024V51.8927H437.098ZM428.275 49.9778C428.275 45.5446 427.481 42.1828 425.898 39.88C424.31 37.5772 422.05 36.4258 419.107 36.4258C416.189 36.4258 413.929 37.5649 412.346 39.8492C410.758 42.1151 409.957 45.4399 409.939 49.8362V51.8988C409.939 56.215 410.733 59.5584 412.316 61.9412C413.904 64.324 416.182 65.5123 419.169 65.5123C422.087 65.5123 424.334 64.3733 425.905 62.089C427.468 59.7862 428.263 56.4367 428.281 52.0466V49.9778H428.275ZM482.286 59.8724L487.975 29.8007H496.651L487.273 72.0574H478.512L471.634 43.7898L464.756 72.0574H455.995L446.617 29.8007H455.293L461.013 59.8108L467.977 29.8007H475.347L482.286 59.8724Z" fill="black"/>
<path d="M173.319 105.183H164.465L162.476 110.7H159.6L167.672 89.5684H170.111L178.195 110.7H175.338L173.319 105.183ZM165.308 102.893H172.493L168.892 93.0103L165.308 102.893ZM199.702 110.7V89.5684H205.668C207.509 89.5684 209.135 89.9748 210.545 90.7876C211.961 91.6003 213.045 92.7579 213.808 94.254C214.584 95.7564 214.972 97.4743 214.984 99.4199V100.768C214.984 102.763 214.596 104.506 213.827 106.008C213.063 107.51 211.967 108.662 210.533 109.462C209.11 110.263 207.454 110.675 205.558 110.694H199.702V110.7ZM202.491 91.8651V108.422H205.422C207.571 108.422 209.24 107.757 210.428 106.421C211.629 105.085 212.226 103.182 212.226 100.719V99.4877C212.226 97.0863 211.659 95.2269 210.526 93.9031C209.406 92.567 207.811 91.8897 205.736 91.8712H202.491V91.8651ZM227.847 110.7H225.057V89.5684H227.847V110.7ZM254.199 107.929C253.485 108.957 252.481 109.721 251.195 110.238C249.92 110.743 248.43 110.995 246.724 110.995C245 110.995 243.473 110.595 242.137 109.789C240.801 108.976 239.767 107.824 239.034 106.334C238.308 104.844 237.938 103.12 237.92 101.156V99.3152C237.92 96.132 238.659 93.663 240.142 91.9143C241.632 90.1657 243.72 89.2852 246.41 89.2852C248.615 89.2852 250.394 89.8517 251.736 90.9846C253.079 92.1052 253.904 93.7061 254.205 95.7749H251.416C250.893 92.9795 249.23 91.5818 246.423 91.5818C244.557 91.5818 243.141 92.2407 242.168 93.5583C241.208 94.8636 240.727 96.76 240.715 99.2475V100.972C240.715 103.342 241.257 105.226 242.341 106.63C243.424 108.022 244.89 108.717 246.737 108.717C247.783 108.717 248.695 108.6 249.483 108.366C250.265 108.132 250.911 107.744 251.429 107.19V102.443H246.54V100.177H254.199V107.929V107.929ZM267.499 110.7H264.71V89.5684H267.499V110.7ZM292.417 91.8651H285.626V110.7H282.855V91.8651H276.076V89.5746H292.417V91.8651ZM311.701 105.183H302.847L300.858 110.7H297.983L306.055 89.5684H308.493L316.578 110.7H313.721L311.701 105.183ZM303.691 102.893H310.876L307.274 93.0103L303.691 102.893ZM327.87 108.422H337.882V110.7H325.068V89.5684H327.87V108.422ZM371.395 105.183H362.541L360.552 110.7H357.677L365.749 89.5684H368.187L376.272 110.7H373.415L371.395 105.183ZM363.385 102.893H370.57L366.968 93.0103L363.385 102.893ZM400.192 107.929C399.478 108.957 398.474 109.721 397.188 110.238C395.907 110.743 394.423 110.995 392.717 110.995C390.993 110.995 389.466 110.595 388.13 109.789C386.794 108.976 385.76 107.824 385.027 106.334C384.301 104.844 383.931 103.12 383.906 101.156V99.3152C383.906 96.132 384.645 93.663 386.129 91.9143C387.619 90.1657 389.707 89.2852 392.397 89.2852C394.601 89.2852 396.381 89.8517 397.723 90.9846C399.065 92.1052 399.89 93.7061 400.192 95.7749H397.403C396.88 92.9795 395.217 91.5818 392.41 91.5818C390.544 91.5818 389.122 92.2407 388.155 93.5583C387.201 94.8636 386.714 96.76 386.702 99.2475V100.972C386.702 103.342 387.244 105.226 388.327 106.63C389.411 108.022 390.876 108.717 392.724 108.717C393.77 108.717 394.682 108.6 395.463 108.366C396.245 108.132 396.898 107.744 397.409 107.19V102.443H392.52V100.177H400.18V107.929H400.192ZM422.438 100.935H413.282V108.422H423.922V110.7H410.499V89.5684H423.774V91.8589H413.282V98.6503H422.438V100.935ZM449.277 110.7H446.476L435.836 94.4203V110.7H433.035V89.5684H435.836L446.5 105.922V89.5684H449.271V110.7H449.277ZM475.415 103.995C475.156 106.23 474.325 107.954 472.933 109.173C471.548 110.38 469.707 110.989 467.404 110.989C464.91 110.989 462.903 110.096 461.395 108.305C459.892 106.513 459.147 104.118 459.147 101.119V99.0874C459.147 97.1233 459.492 95.3993 460.194 93.9092C460.902 92.4192 461.899 91.2801 463.18 90.4859C464.467 89.6854 465.957 89.2791 467.65 89.2791C469.898 89.2791 471.696 89.9071 473.05 91.1631C474.405 92.4131 475.193 94.1432 475.415 96.3598H472.613C472.373 94.6789 471.843 93.4598 471.031 92.7024C470.224 91.9451 469.097 91.5695 467.65 91.5695C465.871 91.5695 464.473 92.2283 463.457 93.546C462.454 94.8636 461.949 96.7354 461.949 99.1613V101.206C461.949 103.496 462.429 105.325 463.383 106.679C464.344 108.034 465.68 108.711 467.404 108.711C468.949 108.711 470.138 108.36 470.963 107.664C471.794 106.956 472.348 105.737 472.619 103.995H475.415ZM491.318 100.177L496.835 89.5684H500L492.716 102.819V110.7H489.927V102.819L482.643 89.5684H485.839L491.318 100.177Z" fill="#222222"/>
</svg>
