<svg width="50" height="19" viewBox="0 0 50 19" fill="none" xmlns="http://www.w3.org/2000/svg">
<path d="M3.42503 17.9554H0L6.23597 0.242174H10.1972L16.4419 17.9554H13.0168L8.28579 3.87478H8.14741L3.42503 17.9554Z" fill="black"/>
<path d="M28.1159 5.11159C28.0352 4.35624 27.695 3.76811 27.0953 3.34718C26.5014 2.92626 25.7288 2.7158 24.7774 2.7158C24.1085 2.7158 23.5348 2.81671 23.0562 3.01852C22.5776 3.22033 22.2115 3.49422 21.9578 3.84018C21.7041 4.18614 21.5743 4.58112 21.5686 5.0251C21.5686 5.39413 21.6522 5.71414 21.8194 5.98515C21.9924 6.25615 22.2259 6.48679 22.52 6.67707C22.814 6.86158 23.1398 7.01727 23.4973 7.14412C23.8548 7.27097 24.2152 7.37764 24.5785 7.46413L26.2391 7.87929C26.9079 8.03497 27.5508 8.24543 28.1678 8.51067C28.7905 8.77591 29.347 9.11034 29.8371 9.51396C30.333 9.91758 30.725 10.4048 31.0134 10.9756C31.3017 11.5465 31.4458 12.2153 31.4458 12.9822C31.4458 14.0201 31.1806 14.934 30.6501 15.724C30.1196 16.5082 29.3527 17.1222 28.3494 17.5662C27.3519 18.0044 26.1439 18.2236 24.7255 18.2236C23.3474 18.2236 22.1509 18.0102 21.1361 17.5835C20.1271 17.1568 19.3371 16.5341 18.7663 15.7153C18.2012 14.8966 17.8956 13.899 17.8495 12.7228H21.0064C21.0525 13.3397 21.2428 13.8529 21.5772 14.2623C21.9117 14.6717 22.347 14.9773 22.8832 15.1791C23.4252 15.3809 24.0307 15.4818 24.6995 15.4818C25.3972 15.4818 26.0084 15.378 26.5331 15.1704C27.0636 14.9571 27.4788 14.663 27.7786 14.2882C28.0784 13.9077 28.2312 13.4637 28.237 12.9563C28.2312 12.495 28.0957 12.1144 27.8305 11.8146C27.5653 11.509 27.1934 11.2553 26.7148 11.0535C26.242 10.8459 25.6884 10.6614 25.0542 10.5L23.0389 9.98101C21.5801 9.60622 20.4269 9.03826 19.5793 8.27715C18.7375 7.51026 18.3165 6.49256 18.3165 5.22403C18.3165 4.18038 18.5991 3.26646 19.1641 2.48228C19.735 1.6981 20.5105 1.08978 21.4907 0.657328C22.471 0.21911 23.5809 0 24.8206 0C26.0776 0 27.1789 0.21911 28.1246 0.657328C29.076 1.08978 29.8227 1.69233 30.3647 2.46498C30.9067 3.23186 31.1863 4.11407 31.2036 5.11159H28.1159Z" fill="black"/>
<path d="M49.4683 6.21867H46.2335C46.1413 5.68819 45.9712 5.21826 45.7232 4.80887C45.4753 4.39372 45.1668 4.04199 44.7978 3.75369C44.4288 3.46539 44.0078 3.24916 43.535 3.10501C43.068 2.95509 42.5634 2.88014 42.0214 2.88014C41.0585 2.88014 40.2051 3.12231 39.4613 3.60666C38.7175 4.08524 38.1351 4.78869 37.7142 5.71702C37.2933 6.63959 37.0828 7.76685 37.0828 9.0988C37.0828 10.4538 37.2933 11.5955 37.7142 12.5238C38.1409 13.4464 38.7233 14.1441 39.4613 14.6169C40.2051 15.0839 41.0556 15.3175 42.0128 15.3175C42.5433 15.3175 43.0391 15.2483 43.5004 15.1099C43.9675 14.9657 44.3855 14.7553 44.7545 14.4785C45.1293 14.2017 45.4436 13.8616 45.6973 13.4579C45.9568 13.0543 46.1355 12.593 46.2335 12.0741L49.4683 12.0914C49.3472 12.9332 49.0848 13.7232 48.6812 14.4612C48.2833 15.1993 47.7615 15.8508 47.1157 16.4159C46.4699 16.9752 45.7146 17.4134 44.8497 17.7306C43.9848 18.0419 43.0247 18.1976 41.9695 18.1976C40.4127 18.1976 39.0231 17.8372 37.8007 17.1165C36.5783 16.3957 35.6154 15.355 34.9119 13.9942C34.2085 12.6334 33.8567 11.0016 33.8567 9.0988C33.8567 7.19025 34.2113 5.55846 34.9206 4.20344C35.6298 2.84266 36.5956 1.80189 37.818 1.08113C39.0404 0.360377 40.4242 0 41.9695 0C42.9555 0 43.8723 0.138385 44.7199 0.415154C45.5675 0.691925 46.3229 1.09843 46.986 1.63467C47.6491 2.16515 48.194 2.81671 48.6207 3.58936C49.0531 4.35624 49.3357 5.23268 49.4683 6.21867Z" fill="black"/>
</svg>
